<svg width="124" height="42" viewBox="0 0 124 42" fill="none" xmlns="http://www.w3.org/2000/svg">
<g clip-path="url(#clip0_982_1696)">
<path fill-rule="evenodd" clip-rule="evenodd" d="M27.7382 31.0986H20.368V14.9375C20.368 14.0348 20.1953 13.1871 19.8578 12.4022C19.5203 11.6095 19.0572 10.9266 18.4685 10.3537C17.8798 9.78068 17.1891 9.31759 16.4042 8.98008C15.6115 8.64257 14.7795 8.46989 13.9082 8.46989C13.0056 8.46989 12.1579 8.64257 11.373 8.98008C10.5803 9.31759 9.88954 9.77283 9.28517 10.3537C8.68079 10.9266 8.2177 11.6095 7.87235 12.4022C7.53484 13.195 7.36216 14.0348 7.36216 14.9375V31.0986H-0.00805664V14.9375C-0.00805664 13.0302 0.352998 11.2327 1.08296 9.54521C1.81291 7.85767 2.80189 6.37421 4.07343 5.11052C5.33712 3.84683 6.81273 2.85001 8.49242 2.12005C10.1721 1.39009 11.9774 1.02904 13.9082 1.02904C15.8155 1.02904 17.613 1.39009 19.3005 2.12005C20.988 2.85001 22.4558 3.83898 23.6959 5.11052C24.9361 6.37421 25.9172 7.85767 26.6472 9.54521C27.3771 11.2327 27.7382 13.038 27.7382 14.9375V31.0986ZM59.511 1.36654C58.2237 3.17966 58.2237 6.12304 59.511 7.93616L71.6063 25.0313L76.2529 31.6009L80.8995 25.0313L92.9948 7.93616C94.2821 6.12304 94.2821 3.17966 92.9948 1.36654C91.7076 -0.446577 89.6276 -0.446577 88.3482 1.36654L82.4615 9.68649C79.0315 14.5293 73.4822 14.5293 70.0522 9.68649L64.1654 1.36654C62.8782 -0.446577 60.7982 -0.446577 59.5188 1.36654H59.511ZM31.333 30.2352C30.0458 28.4221 30.0458 25.4787 31.333 23.6656L43.4284 6.57044L48.075 0.000816345L52.7216 6.57044L64.8169 23.6656C66.1041 25.4787 66.1041 28.4221 64.8169 30.2352C63.5297 32.0483 61.4497 32.0483 60.1703 30.2352L54.2835 21.9152C50.8535 17.0724 45.3043 17.0724 41.8742 21.9152L35.9875 30.2352C34.7003 32.0483 32.6203 32.0483 31.3409 30.2352H31.333ZM108.936 31.0986C106.856 31.0986 104.91 30.7061 103.089 29.9134C101.276 29.1206 99.6822 28.0453 98.3165 26.6796C96.9507 25.3139 95.8754 23.7205 95.0827 21.9074C94.2899 20.0943 93.8975 18.1399 93.8975 16.0599C93.8975 14.0034 94.2899 12.0647 95.0827 10.2359C95.8754 8.4071 96.9507 6.8059 98.3165 5.44018C99.6822 4.07445 101.276 2.99914 103.089 2.20639C104.902 1.41364 106.856 1.02119 108.936 1.02119C110.993 1.02119 112.931 1.41364 114.76 2.20639C116.589 2.99914 118.19 4.07445 119.556 5.44018C120.922 6.8059 121.997 8.4071 122.79 10.2359C123.582 12.0647 123.975 14.0034 123.975 16.0599C123.975 18.1399 123.582 20.0864 122.79 21.9074C121.997 23.7205 120.922 25.3139 119.556 26.6796C118.19 28.0453 116.589 29.1206 114.76 29.9134C112.931 30.7061 110.993 31.0986 108.936 31.0986ZM108.936 8.54838C107.884 8.54838 106.895 8.75246 105.969 9.15276C105.043 9.55306 104.242 10.0946 103.567 10.7697C102.892 11.4447 102.351 12.2453 101.951 13.1558C101.55 14.0741 101.346 15.0395 101.346 16.0677C101.346 17.1195 101.55 18.1085 101.951 19.0347C102.351 19.9608 102.892 20.7614 103.567 21.4365C104.242 22.1115 105.043 22.653 105.969 23.0534C106.895 23.4536 107.884 23.6577 108.936 23.6577C109.964 23.6577 110.938 23.4536 111.848 23.0534C112.766 22.653 113.559 22.1115 114.234 21.4365C114.909 20.7614 115.451 19.9608 115.851 19.0347C116.251 18.1085 116.456 17.1195 116.456 16.0677C116.456 15.0395 116.251 14.0662 115.851 13.1558C115.451 12.2374 114.909 11.4447 114.234 10.7697C113.559 10.0946 112.759 9.55306 111.848 9.15276C110.93 8.75246 109.964 8.54838 108.936 8.54838Z" fill="url(#paint0_linear_982_1696)"/>
<path d="M83.5217 39.7405V36.0415H83.9479V37.4069H83.984C84.0153 37.3588 84.0587 37.2974 84.1141 37.2227C84.1707 37.1469 84.2513 37.0794 84.3561 37.0204C84.4621 36.9602 84.6054 36.9301 84.786 36.9301C85.0196 36.9301 85.2255 36.9885 85.4037 37.1053C85.5819 37.2221 85.721 37.3877 85.8209 37.602C85.9208 37.8163 85.9708 38.0692 85.9708 38.3606C85.9708 38.6544 85.9208 38.9091 85.8209 39.1246C85.721 39.3389 85.5825 39.5051 85.4055 39.6231C85.2285 39.7399 85.0244 39.7983 84.7932 39.7983C84.615 39.7983 84.4723 39.7688 84.3651 39.7098C84.258 39.6496 84.1755 39.5816 84.1177 39.5057C84.0599 39.4286 84.0153 39.3648 83.984 39.3143H83.9335V39.7405H83.5217ZM83.9407 38.3534C83.9407 38.5629 83.9714 38.7477 84.0328 38.9079C84.0942 39.0668 84.1839 39.1914 84.3019 39.2817C84.4199 39.3708 84.5644 39.4154 84.7354 39.4154C84.9136 39.4154 85.0623 39.3684 85.1815 39.2745C85.3019 39.1794 85.3922 39.0518 85.4524 38.8916C85.5139 38.7303 85.5446 38.5508 85.5446 38.3534C85.5446 38.1583 85.5145 37.9825 85.4543 37.826C85.3953 37.6682 85.3055 37.5436 85.1851 37.4521C85.0659 37.3594 84.916 37.313 84.7354 37.313C84.562 37.313 84.4163 37.357 84.2983 37.4449C84.1803 37.5316 84.0912 37.6532 84.031 37.8097C83.9708 37.9651 83.9407 38.1463 83.9407 38.3534ZM86.798 40.7809C86.7258 40.7809 86.6614 40.7748 86.6048 40.7628C86.5482 40.752 86.5091 40.7411 86.4874 40.7303L86.5957 40.3546C86.6993 40.3811 86.7908 40.3907 86.8703 40.3835C86.9498 40.3763 87.0202 40.3408 87.0816 40.2769C87.1442 40.2143 87.2014 40.1126 87.2532 39.9717L87.3327 39.755L86.3068 36.9662H86.7691L87.535 39.177H87.5639L88.3297 36.9662H88.792L87.6144 40.1451C87.5614 40.2884 87.4958 40.407 87.4176 40.5009C87.3393 40.596 87.2484 40.6665 87.1448 40.7122C87.0425 40.758 86.9269 40.7809 86.798 40.7809ZM93.964 37.891C93.964 38.2811 93.8936 38.6183 93.7527 38.9024C93.6118 39.1866 93.4185 39.4058 93.1729 39.5599C92.9273 39.714 92.6467 39.7911 92.3312 39.7911C92.0157 39.7911 91.7352 39.714 91.4895 39.5599C91.2439 39.4058 91.0507 39.1866 90.9098 38.9024C90.7689 38.6183 90.6984 38.2811 90.6984 37.891C90.6984 37.5009 90.7689 37.1637 90.9098 36.8795C91.0507 36.5954 91.2439 36.3762 91.4895 36.2221C91.7352 36.068 92.0157 35.9909 92.3312 35.9909C92.6467 35.9909 92.9273 36.068 93.1729 36.2221C93.4185 36.3762 93.6118 36.5954 93.7527 36.8795C93.8936 37.1637 93.964 37.5009 93.964 37.891ZM93.5305 37.891C93.5305 37.5707 93.4769 37.3004 93.3698 37.08C93.2638 36.8597 93.1199 36.6929 92.9381 36.5797C92.7575 36.4665 92.5552 36.4099 92.3312 36.4099C92.1073 36.4099 91.9044 36.4665 91.7225 36.5797C91.5419 36.6929 91.398 36.8597 91.2909 37.08C91.1849 37.3004 91.1319 37.5707 91.1319 37.891C91.1319 38.2113 91.1849 38.4816 91.2909 38.702C91.398 38.9223 91.5419 39.0891 91.7225 39.2023C91.9044 39.3155 92.1073 39.3721 92.3312 39.3721C92.5552 39.3721 92.7575 39.3155 92.9381 39.2023C93.1199 39.0891 93.2638 38.9223 93.3698 38.702C93.4769 38.4816 93.5305 38.2113 93.5305 37.891ZM95.0856 36.0415V39.7405H94.6594V36.0415H95.0856ZM96.1409 40.7809C96.0686 40.7809 96.0042 40.7748 95.9476 40.7628C95.891 40.752 95.8519 40.7411 95.8302 40.7303L95.9386 40.3546C96.0421 40.3811 96.1336 40.3907 96.2131 40.3835C96.2926 40.3763 96.363 40.3408 96.4244 40.2769C96.4871 40.2143 96.5442 40.1126 96.596 39.9717L96.6755 39.755L95.6496 36.9662H96.112L96.8778 39.177H96.9067L97.6725 36.9662H98.1349L96.9573 40.1451C96.9043 40.2884 96.8387 40.407 96.7604 40.5009C96.6821 40.596 96.5912 40.6665 96.4877 40.7122C96.3853 40.758 96.2697 40.7809 96.1409 40.7809ZM99.1238 38.0716V39.7405H98.6975V36.9662H99.1093V37.3997H99.1454C99.2104 37.2588 99.3092 37.1457 99.4416 37.0602C99.5741 36.9735 99.7451 36.9301 99.9546 36.9301C100.142 36.9301 100.307 36.9687 100.448 37.0457C100.589 37.1216 100.698 37.2372 100.776 37.3925C100.855 37.5466 100.894 37.7417 100.894 37.9777V39.7405H100.468V38.0066C100.468 37.7886 100.411 37.6189 100.298 37.4973C100.185 37.3744 100.029 37.313 99.8318 37.313C99.6957 37.313 99.5741 37.3425 99.4669 37.4015C99.361 37.4605 99.2773 37.5466 99.2159 37.6598C99.1545 37.773 99.1238 37.9103 99.1238 38.0716ZM102.72 39.7983C102.489 39.7983 102.285 39.7399 102.108 39.6231C101.931 39.5051 101.793 39.3389 101.693 39.1246C101.593 38.9091 101.543 38.6544 101.543 38.3606C101.543 38.0692 101.593 37.8163 101.693 37.602C101.793 37.3877 101.932 37.2221 102.11 37.1053C102.288 36.9885 102.494 36.9301 102.727 36.9301C102.908 36.9301 103.051 36.9602 103.156 37.0204C103.262 37.0794 103.342 37.1469 103.398 37.2227C103.454 37.2974 103.498 37.3588 103.529 37.4069H103.566V36.0415H103.992V39.7405H103.58V39.3143H103.529C103.498 39.3648 103.454 39.4286 103.396 39.5057C103.338 39.5816 103.256 39.6496 103.148 39.7098C103.041 39.7688 102.898 39.7983 102.72 39.7983ZM102.778 39.4154C102.949 39.4154 103.094 39.3708 103.212 39.2817C103.33 39.1914 103.419 39.0668 103.481 38.9079C103.542 38.7477 103.573 38.5629 103.573 38.3534C103.573 38.1463 103.543 37.9651 103.482 37.8097C103.422 37.6532 103.333 37.5316 103.215 37.4449C103.097 37.357 102.951 37.313 102.778 37.313C102.597 37.313 102.447 37.3594 102.327 37.4521C102.207 37.5436 102.118 37.6682 102.057 37.826C101.998 37.9825 101.969 38.1583 101.969 38.3534C101.969 38.5508 101.999 38.7303 102.059 38.8916C102.121 39.0518 102.211 39.1794 102.33 39.2745C102.451 39.3684 102.6 39.4154 102.778 39.4154ZM104.832 39.7405V36.9662H105.243V37.3853H105.272C105.323 37.248 105.414 37.1366 105.547 37.0511C105.679 36.9656 105.829 36.9229 105.995 36.9229C106.026 36.9229 106.065 36.9235 106.112 36.9247C106.159 36.9259 106.195 36.9277 106.219 36.9301V37.3636C106.204 37.36 106.171 37.3546 106.119 37.3473C106.069 37.3389 106.015 37.3347 105.959 37.3347C105.824 37.3347 105.703 37.363 105.597 37.4196C105.493 37.475 105.41 37.552 105.348 37.6508C105.288 37.7483 105.258 37.8597 105.258 37.9849V39.7405H104.832ZM107.54 39.8055C107.365 39.8055 107.205 39.7724 107.062 39.7062C106.919 39.6388 106.805 39.5418 106.72 39.4154C106.636 39.2878 106.594 39.1336 106.594 38.953C106.594 38.7941 106.625 38.6652 106.688 38.5665C106.751 38.4666 106.834 38.3883 106.939 38.3317C107.044 38.2751 107.159 38.233 107.286 38.2053C107.413 38.1764 107.542 38.1535 107.671 38.1366C107.839 38.115 107.976 38.0987 108.081 38.0879C108.186 38.0758 108.264 38.056 108.312 38.0283C108.361 38.0006 108.386 37.9524 108.386 37.8838V37.8693C108.386 37.6911 108.337 37.5526 108.239 37.4539C108.143 37.3552 107.997 37.3058 107.801 37.3058C107.597 37.3058 107.438 37.3504 107.322 37.4395C107.206 37.5286 107.125 37.6237 107.078 37.7248L106.674 37.5803C106.746 37.4118 106.842 37.2805 106.963 37.1866C107.084 37.0915 107.217 37.0252 107.36 36.9879C107.504 36.9494 107.646 36.9301 107.786 36.9301C107.875 36.9301 107.978 36.941 108.093 36.9626C108.21 36.9831 108.323 37.0258 108.431 37.0909C108.54 37.1559 108.631 37.254 108.704 37.3853C108.776 37.5165 108.812 37.6923 108.812 37.9127V39.7405H108.386V39.3648H108.364C108.335 39.425 108.287 39.4895 108.22 39.5581C108.152 39.6267 108.062 39.6851 107.95 39.7333C107.838 39.7814 107.702 39.8055 107.54 39.8055ZM107.605 39.4226C107.774 39.4226 107.916 39.3895 108.032 39.3233C108.149 39.2571 108.236 39.1716 108.295 39.0668C108.356 38.9621 108.386 38.8519 108.386 38.7363V38.3462C108.368 38.3678 108.328 38.3877 108.267 38.4058C108.206 38.4226 108.137 38.4377 108.057 38.4509C107.979 38.4629 107.902 38.4738 107.828 38.4834C107.754 38.4918 107.695 38.4991 107.649 38.5051C107.538 38.5195 107.435 38.543 107.338 38.5755C107.243 38.6068 107.166 38.6544 107.107 38.7182C107.049 38.7808 107.02 38.8663 107.02 38.9747C107.02 39.1228 107.075 39.2348 107.185 39.3106C107.295 39.3853 107.436 39.4226 107.605 39.4226Z" fill="#B3B3B3"/>
</g>
<defs>
<linearGradient id="paint0_linear_982_1696" x1="34.4177" y1="17.9829" x2="-27.511" y2="7.73208" gradientUnits="userSpaceOnUse">
<stop stop-color="#001AAB"/>
<stop offset="1" stop-color="#3F51B5"/>
</linearGradient>
<clipPath id="clip0_982_1696">
<rect width="123.975" height="41.0989" fill="white"/>
</clipPath>
</defs>
</svg>
